<?xml version="1.0" encoding="iso-8859-1"?>
<!-- Generator: Adobe Illustrator 19.0.0, SVG Export Plug-In . SVG Version: 6.00 Build 0)  -->
<svg version="1.1" id="Layer_1" xmlns="http://www.w3.org/2000/svg" xmlns:xlink="http://www.w3.org/1999/xlink" x="0px" y="0px"
	 viewBox="0 0 512 512" style="enable-background:new 0 0 512 512;" xml:space="preserve">
<path style="fill:#3D484A;" d="M511.499,327.934c1.238,4.932,0.155,10.063-2.964,14.077c-3.141,4.025-7.862,6.325-12.971,6.325
	h-3.074c-5.131,0-9.853-2.311-12.971-6.347c-4.103-5.33-15.592-16.289-24.229-21.32c-6.922-4.036-13.768-8.603-18.876-12.153
	c-11.434,20.281-27.867,30.974-47.716,30.974c-4.501,0-8.625-0.387-12.441-1.073l1.028,3.107c7.077,1.261,20.292,3.992,32.047,8.46
	c4.28,1.626,6.436,6.414,4.81,10.693c-1.25,3.317-4.412,5.352-7.752,5.352c-0.984,0-1.968-0.177-2.941-0.542
	c-15.006-5.684-33.429-8.36-33.617-8.393c-3.107-0.442-5.706-2.599-6.701-5.584l-6.723-20.192
	c-6.038-3.329-11.213-7.254-16.112-10.981c-11.423-8.714-21.298-16.234-40.064-16.234c-19.042,0-27.734,3.605-37.808,7.785
	c-1.537,0.63-3.096,1.283-4.711,1.924l5.098,20.391c10.749,1.382,22.249,3.539,31.428,6.9c4.302,1.57,6.513,6.336,4.932,10.638
	c-1.227,3.362-4.401,5.441-7.785,5.441c-0.951,0-1.913-0.166-2.853-0.509c-21.099-7.719-58.808-8.338-59.195-8.338
	c-2.731-0.044-5.264-1.415-6.779-3.693l-15.393-23.079c-11.91-1.194-21.741-6.945-29.68-14.707
	c-7.332,6.558-18.987,13.259-32.522,18.523c-14.531,5.651-37.83,12.241-69.7,13.779c11.014,0.896,23.963,1.438,39.19,1.438
	c4.578,0,8.294,3.716,8.294,8.294s-3.716,8.294-8.294,8.294C71.713,357.183,0,352.66,0,322.35c0-13.933,12.794-19.905,23.521-22.448
	c10.317-2.444,24.726-3.539,46.699-3.539c39.489,0,75.207-23.609,82.904-31.815c-1.847-6.005-2.731-10.738-2.731-12.971
	c0-9.123,13.502-35.386,37.908-59.04c21.928-21.243,59.151-46.566,111.932-46.566c50.99,0,86.907,18.523,108.061,34.059
	c11.689,8.581,20.27,17.196,25.943,23.687c0.221-0.332,0.442-0.675,0.664-1.006c2.521-3.727,7.542-4.777,11.335-2.366
	c0.763,0.487,12.739,8.272,19.971,21.575c3.417-5.219,8.227-12.452,12.993-19.308c2.532-3.638,7.475-4.644,11.235-2.3
	c2.389,1.493,3.517,3.439,5.242,9.079c0.818,2.665,1.946,6.945,2.665,12.142c1.272,9.123,1.415,22.448-5.087,34.093
	c-0.044,0.077-0.1,0.144-0.144,0.221c9.433,17.903,10.041,39.644,10.041,39.964c0,4.235,2.754,13.226,4.965,20.447
	C509.398,320.436,510.603,324.384,511.499,327.934z M492.578,331.749h2.776c-0.796-3.096-1.913-6.757-3.096-10.638
	c-2.798-9.134-5.695-18.578-5.695-25.301c0-5.363-3.362-33.971-17.561-43.426c-1.758,1.791-4.302,2.787-6.989,2.444
	c-4.545-0.586-7.752-4.733-7.177-9.278c0.962-7.486-1.615-14.951-7.652-22.183c-0.863-1.051-1.747-2.013-2.61-2.897
	c-5.463,17.439,4.357,35.762,4.479,35.972c0.663,1.216,1.017,2.588,1.017,3.981c0,6.668-1.869,19.451-6.679,32.721
	c4.976,3.517,12.662,8.758,20.259,13.192C474.498,312.673,487.58,325.324,492.578,331.749z M481.354,240.872
	c1.095-4.379,1.261-8.99,0.951-13.259c-2.886,4.368-5.164,7.896-6.27,9.61C477.937,238.297,479.707,239.512,481.354,240.872z
	 M426.815,290.214c4.302-10.815,6.27-21.674,6.613-27.944c-2.753-5.861-9.532-22.703-6.182-40.816
	c-3.517-4.766-13.159-16.709-29.371-28.497c-9.123-6.635-18.81-12.164-29.017-16.643c-9.643,15.404-30.897,60.632-34.314,119.982
	c5.905,3.317,10.992,7.177,15.802,10.848c11.103,8.449,20.69,15.758,38.35,15.758c17.704,0,29.105-13.17,35.972-27.745
	c0.122-1.515,0.641-3.019,1.626-4.324C426.461,290.612,426.638,290.414,426.815,290.214z M353.079,170.376
	c-6.679-2.112-13.557-3.782-20.613-5.032c-3.406,7.398-8.946,23.012-13.148,43.227c-4.268,20.535-8.194,50.835-3.428,80.57
	c0.84,0.177,1.659,0.387,2.477,0.597C322.68,232.822,341.976,189.286,353.079,170.376z M315.326,163.166
	c-4.954-0.398-9.975-0.608-15.095-0.608c-0.774,0-1.537,0.022-2.3,0.033c-6.193,17.583-20.259,75.329-4.114,125.058
	c1.615-0.066,3.295-0.111,5.043-0.122C292.502,239.889,305.384,187.494,315.326,163.166z M271.69,290.923
	c1.703-0.464,3.483-0.896,5.363-1.283c-14.519-48.291-4.246-101.205,3.019-125.644c-5.695,0.818-11.147,1.957-16.355,3.373
	c-0.276,1.603-0.608,3.417-0.995,5.496C258.663,194.649,249.231,245.44,271.69,290.923z M245.283,332.49l-3.417-13.657
	c-4.346,0.984-9.278,1.803-15.028,2.322l7.144,10.715C236.757,331.971,240.672,332.159,245.283,332.49z M256.009,296.595
	c-22.647-47.407-14.84-98.109-10.295-122.957c-18.954,8.095-33.838,19.385-44.62,29.614c-23.145,21.962-33.296,44.012-34.093,48.358
	c0.863,6.546,14.32,53.599,44.764,53.599c0.011,0,0.022,0,0.033,0c0,0,0.011,0,0.022,0
	C235.198,305.199,245.327,301.018,256.009,296.595z M166.991,294.04c-2.842-4.268-5.297-8.692-7.376-13.016
	c-6.911,5.618-16.698,11.689-27.281,16.742c-14.531,6.922-37.1,15.183-62.114,15.183c-20.635,0-33.86,0.951-42.873,3.096
	c-4.014,0.951-10.76,3.041-10.76,6.303c0,0.907,1.548,2.919,5.905,5.286c5.54-3.881,17.339-4.733,38.881-4.733
	C121.331,322.902,156.585,303.939,166.991,294.04z"/>
<g>
	<path style="fill:#9A9389;" d="M491.497,333.961l-0.665-0.854c-4.856-6.24-17.726-18.685-28.298-24.86
		c-7.626-4.451-15.313-9.688-20.419-13.296l-1.378-0.973l0.575-1.587c4.523-12.476,6.547-25.045,6.547-31.967
		c0-1.015-0.258-2.026-0.748-2.923c-0.08-0.137-10.415-19.281-4.648-37.692l1.107-3.534l2.587,2.651
		c1.026,1.052,1.921,2.046,2.736,3.039c6.439,7.712,9.181,15.747,8.137,23.867c-0.42,3.321,1.942,6.374,5.266,6.803
		c0.257,0.032,0.514,0.049,0.77,0.049c1.617,0,3.205-0.673,4.358-1.848l1.282-1.306l1.523,1.014
		c15.322,10.203,18.547,39.853,18.547,45.267c0,6.376,2.835,15.634,5.578,24.588l0.033,0.109c1.185,3.887,2.306,7.558,3.111,10.691
		l0.711,2.762H491.497z"/>
	<path style="fill:#9A9389;" d="M495.354,331.749h-2.776c-4.998-6.425-18.08-19.075-28.928-25.412
		c-7.597-4.434-15.283-9.676-20.259-13.192c4.81-13.27,6.679-26.053,6.679-32.721c0-1.393-0.354-2.765-1.017-3.981
		c-0.122-0.21-9.941-18.534-4.479-35.972c0.863,0.885,1.747,1.847,2.61,2.897c6.038,7.232,8.614,14.696,7.652,22.183
		c-0.575,4.545,2.632,8.692,7.177,9.278c2.687,0.343,5.231-0.652,6.989-2.444c14.199,9.455,17.561,38.063,17.561,43.426
		c0,6.723,2.897,16.167,5.695,25.301C493.441,324.993,494.558,328.654,495.354,331.749z"/>
	<path style="fill:#9A9389;" d="M479.947,242.579c-1.548-1.277-3.229-2.431-4.998-3.428l-2.045-1.153l1.273-1.973
		c1.109-1.717,3.39-5.253,6.283-9.63l3.581-5.419l0.47,6.478c0.37,5.096,0.03,9.791-1.011,13.955l-0.85,3.4L479.947,242.579z"/>
	<path style="fill:#9A9389;" d="M482.305,227.615c0.31,4.268,0.144,8.88-0.951,13.259c-1.648-1.36-3.417-2.577-5.319-3.649
		C477.141,235.51,479.419,231.981,482.305,227.615z"/>
</g>
<g>
	<path style="fill:#CDC3B6;" d="M388.697,325.114c-18.388,0-28.244-7.5-39.656-16.184c-4.564-3.483-9.696-7.4-15.58-10.705
		l-1.204-0.677l0.08-1.379c3.288-57.099,23.325-102.942,34.648-121.028l1.014-1.62l1.749,0.767
		c10.405,4.566,20.306,10.245,29.428,16.879c16.499,11.997,26.372,24.258,29.85,28.973l0.57,0.772l-0.175,0.943
		c-3.197,17.282,3.137,33.362,6.009,39.474l0.237,0.505l-0.03,0.556c-0.341,6.219-2.317,17.452-6.767,28.641l-0.144,0.362
		l-0.259,0.291c-0.142,0.159-0.276,0.309-0.403,0.475c-0.688,0.911-1.098,2.007-1.192,3.176l-0.032,0.401l-0.171,0.364
		C417.726,315.082,404.596,325.114,388.697,325.114z"/>
	<path style="fill:#CDC3B6;" d="M433.428,262.27c-0.343,6.27-2.311,17.129-6.613,27.944c-0.177,0.199-0.354,0.398-0.52,0.619
		c-0.984,1.305-1.504,2.809-1.626,4.324c-6.867,14.575-18.268,27.745-35.972,27.745c-17.66,0-27.248-7.309-38.35-15.758
		c-4.81-3.671-9.897-7.531-15.802-10.848c3.417-59.35,24.671-104.578,34.314-119.982c10.207,4.479,19.894,10.008,29.017,16.643
		c16.211,11.788,25.854,23.731,29.371,28.497C423.896,239.569,430.674,256.41,433.428,262.27z"/>
</g>
<g>
	<path style="fill:#9A9389;" d="M317.816,291.881c-0.786-0.202-1.574-0.405-2.381-0.575l-1.488-0.313l-0.24-1.502
		c-4.847-30.235-0.802-60.938,3.446-81.371c4.137-19.9,9.585-35.623,13.304-43.701l0.713-1.55l1.681,0.299
		c7.185,1.272,14.214,2.988,20.895,5.1l2.645,0.836l-1.406,2.393c-4.878,8.308-29.462,53.063-34.414,118.409l-0.199,2.632
		L317.816,291.881z"/>
	<path style="fill:#9A9389;" d="M332.466,165.344c7.055,1.25,13.933,2.919,20.613,5.032c-11.102,18.91-30.399,62.446-34.712,119.363
		c-0.818-0.21-1.637-0.42-2.477-0.597c-4.766-29.736-0.84-60.035,3.428-80.57C323.52,188.358,329.06,172.742,332.466,165.344z"/>
</g>
<g>
	<path style="fill:#CDC3B6;" d="M291.714,288.332c-15.333-47.229-4.003-103.382,4.131-126.476l0.512-1.454l2.302-0.035
		c0.521-0.01,1.044-0.02,1.571-0.02c5.053,0,10.19,0.207,15.271,0.615l3.013,0.242l-1.143,2.799
		c-8.544,20.908-22.95,73.57-16.321,123.232l0.332,2.488l-2.51,0.017c-1.611,0.01-3.281,0.051-4.966,0.121l-1.676,0.069
		L291.714,288.332z"/>
	<path style="fill:#CDC3B6;" d="M300.231,162.558c5.12,0,10.14,0.21,15.095,0.608c-9.941,24.328-22.824,76.722-16.466,124.361
		c-1.747,0.011-3.428,0.055-5.043,0.122c-16.145-49.729-2.079-107.475,4.114-125.058
		C298.694,162.58,299.457,162.558,300.231,162.558z"/>
</g>
<g>
	<path style="fill:#9A9389;" d="M269.706,291.902c-22.807-46.186-13.243-97.52-9.16-119.442c0.385-2.068,0.714-3.871,0.99-5.466
		l0.239-1.389l1.36-0.37c5.382-1.463,10.974-2.616,16.621-3.428l3.419-0.491l-0.984,3.311c-4.714,15.856-18.862,71.688-3.02,124.378
		l0.696,2.316l-2.369,0.488c-1.764,0.363-3.473,0.772-5.227,1.251l-1.758,0.48L269.706,291.902z"/>
	<path style="fill:#9A9389;" d="M277.053,289.639c-1.88,0.387-3.66,0.818-5.363,1.283c-22.459-45.483-13.027-96.273-8.968-118.058
		c0.387-2.079,0.719-3.893,0.995-5.496c5.208-1.415,10.66-2.554,16.355-3.373C272.807,188.434,262.534,241.348,277.053,289.639z"/>
	<path style="fill:#9A9389;" d="M245.124,334.696c-4.86-0.349-8.786-0.527-11.222-0.615l-1.132-0.041l-9.835-14.753l3.705-0.334
		c5.246-0.474,10.067-1.219,14.738-2.277l2.109-0.478l4.683,18.717L245.124,334.696z"/>
	<path style="fill:#9A9389;" d="M241.866,318.833l3.417,13.657c-4.611-0.332-8.526-0.52-11.302-0.619l-7.144-10.715
		C232.588,320.637,237.52,319.817,241.866,318.833z"/>
</g>
<g>
	<path style="fill:#CDC3B6;" d="M211.799,307.421c-32.287,0-46.031-48.243-46.99-55.522l-0.045-0.345l0.063-0.343
		c0.812-4.43,11.121-27.146,34.746-49.563c13.622-12.923,28.853-23.031,45.274-30.043l3.785-1.617l-0.741,4.048
		c-5.703,31.177-10.859,77.702,10.115,121.605l1.005,2.104l-2.155,0.892c-10.893,4.512-21.183,8.773-45.034,8.782H211.799z"/>
	<path style="fill:#CDC3B6;" d="M245.714,173.638c-4.545,24.848-12.352,75.55,10.295,122.957
		c-10.682,4.423-20.812,8.603-44.189,8.614c-0.011,0-0.022,0-0.022,0c-0.011,0-0.022,0-0.033,0
		c-30.443,0-43.901-47.053-44.764-53.599c0.796-4.346,10.948-26.396,34.093-48.358C211.876,193.023,226.76,181.733,245.714,173.638z
		"/>
</g>
<g>
	<path style="fill:#9A9389;" d="M21.436,329.579c-2.637-1.432-7.061-4.276-7.061-7.23c0-3.702,4.076-6.468,12.462-8.455
		c9.168-2.182,22.549-3.156,43.383-3.156c24.582,0,46.829-8.14,61.163-14.968c10.142-4.842,19.925-10.843,26.836-16.462l2.174-1.767
		l1.214,2.525c2.182,4.536,4.612,8.826,7.223,12.748l1.031,1.547l-1.347,1.282c-10.717,10.193-46.901,29.471-107.141,29.471
		c-19.905,0-32.439,0.709-37.612,4.333l-1.121,0.785L21.436,329.579z"/>
	<path style="fill:#9A9389;" d="M159.615,281.025c2.079,4.324,4.534,8.747,7.376,13.016c-10.406,9.897-45.659,28.862-105.617,28.862
		c-21.541,0-33.341,0.851-38.881,4.733c-4.357-2.366-5.905-4.379-5.905-5.286c0-3.262,6.746-5.352,10.76-6.303
		c9.012-2.145,22.238-3.096,42.873-3.096c25.014,0,47.584-8.26,62.114-15.183C142.917,292.714,152.703,286.642,159.615,281.025z"/>
</g>
<g>
</g>
<g>
</g>
<g>
</g>
<g>
</g>
<g>
</g>
<g>
</g>
<g>
</g>
<g>
</g>
<g>
</g>
<g>
</g>
<g>
</g>
<g>
</g>
<g>
</g>
<g>
</g>
<g>
</g>
</svg>
